Coordinates
version=1
nRows=26
nColumns=24
inDegrees=yes

Units are S.I. units (second, meters, Newtons, ...)
Angles are in degrees.

endheader
time	pelvis_tilt	pelvis_list	pelvis_rotation	pelvis_tx	pelvis_ty	pelvis_tz	hip_flexion_r	hip_adduction_r	hip_rotation_r	knee_angle_r	ankle_angle_r	subtalar_angle_r	mtp_angle_r	hip_flexion_l	hip_adduction_l	hip_rotation_l	knee_angle_l	ankle_angle_l	subtalar_angle_l	mtp_angle_l	lumbar_extension	lumbar_bending	lumbar_rotation
      1.74150000	      2.42279732	      4.16706104	     -1.03443894	      1.44286571	      1.02441947	      0.29544302	     11.30153069	     -3.13014693	      0.40853265	    -61.72191683	      4.64630924	    -17.96363101	      3.31586810	      2.93353521	      8.97561641	      1.75348784	     -9.58552708	      2.23513447	    -15.45846753	      4.91302298	     -2.50776064	     -4.96243866	      4.52518283
      1.74566667	      2.41108152	      4.06547409	     -0.72572800	      1.44766402	      1.02494928	      0.29482850	     11.75803471	     -3.02460519	      0.18495391	    -61.23355834	      4.78637156	    -18.02917558	      3.19340422	      2.46131841	      8.89782858	      2.14502590	     -9.26239564	      2.27855601	    -15.49561716	      4.83615552	     -2.52284175	     -4.83228170	      4.31210163
      1.74983333	      2.38140970	      3.96509772	     -0.41931383	      1.45241481	      1.02539745	      0.29424629	     12.23603177	     -2.91784391	     -0.02244429	    -60.73709082	      4.95037556	    -18.07927165	      3.16288246	      2.03590669	      8.80604967	      2.44142644	     -8.98218749	      2.36820539	    -15.37537327	      4.82062788	     -2.52265003	     -4.70228560	      4.24182985
      1.75400000	      2.39109034	      3.86885299	     -0.14132381	      1.45717451	      1.02588066	      0.29368216	     12.66643726	     -2.82194394	     -0.21088945	    -60.20750358	      5.05395069	    -18.16100586	      3.06737287	      1.53910355	      8.72608981	      2.83603535	     -8.63619707	      2.42451592	    -15.46410641	      4.76388083	     -2.55980389	     -4.58025160	      3.90180534
      1.75816667	      2.38642708	      3.78820061	      0.14941914	      1.46186729	      1.02629987	      0.29312226	     13.10875066	     -2.75080246	     -0.41043411	    -59.66847023	      5.21542890	    -18.21822503	      2.94074886	      1.07454709	      8.65344659	      3.19110920	     -8.30964484	      2.42729092	    -15.52196828	      4.69076859	     -2.58196705	     -4.47971095	      3.66406581
      1.76233333	      2.35778791	      3.69274940	      0.43393132	      1.46663227	      1.02666606	      0.29258636	     13.56369711	     -2.66564143	     -0.60322681	    -59.09781844	      5.33826148	    -18.25288746	      2.90630884	      0.65272925	      8.55392175	      3.47467102	     -8.03191745	      2.51802632	    -15.41595214	      4.67418263	     -2.57384106	     -4.35056302	      3.59959524
      1.76650000	      2.34286579	      3.59476919	      0.72219646	      1.47130734	      1.02701189	      0.29205125	     13.99883783	     -2.58344761	     -0.79935265	    -58.50254958	      5.45258528	    -18.30760838	      2.86536134	      0.22727469	      8.45023303	      3.78758878	     -7.76154204	      2.59884098	    -15.37293659	      4.65326372	     -2.59570694	     -4.22287662	      3.44864575
      1.77066667	      2.36524059	      3.53607388	      0.98345490	      1.47601168	      1.02737972	      0.29157410	     14.39105318	     -2.53869999	     -0.95376316	    -57.89778772	      5.57048995	    -18.35909408	      2.73020792	     -0.28835973	      8.38889057	      4.18295716	     -7.38310198	      2.57159356	    -15.55465680	      4.57497919	     -2.64067637	     -4.16542186	      3.07067854
      1.77483333	      2.33447613	      3.43339638	      1.25625752	      1.48073774	      1.02765640	      0.29109358	     14.82370439	     -2.45153097	     -1.12237004	    -57.24969196	      5.67432205	    -18.37145821	      2.68617148	     -0.69604877	      8.26744128	      4.44936040	     -7.11612185	      2.66779889	    -15.48091973	      4.55158535	     -2.62356200	     -4.04040635	      2.99765407
      1.77900000	      2.34074534	      3.35451525	      1.51148794	      1.48541035	      1.02794160	      0.29063310	     15.21368609	     -2.39206039	     -1.27212293	    -56.58957380	      5.74746182	    -18.41326409	      2.59499596	     -1.15364417	      8.17414611	      4.79268563	     -6.82171564	      2.73656046	    -15.54681345	      4.49869635	     -2.66694438	     -3.93560152	      2.73737571
      1.78316667	      2.34510539	      3.29291408	      1.75805205	      1.49009807	      1.02817984	      0.29022205	     15.60188218	     -2.34967908	     -1.40291267	    -55.92223591	      5.86580557	    -18.40609096	      2.48934389	     -1.61988801	      8.09009277	      5.10529453	     -6.49497926	      2.74777418	    -15.59755889	      4.43626996	     -2.69781634	     -3.86688845	      2.54783224
      1.78733333	      2.33040574	      3.20863817	      2.00562027	      1.49476804	      1.02838783	      0.28980571	     15.99405090	     -2.28692942	     -1.53650256	    -55.21157074	      5.95197864	    -18.40256927	      2.41233129	     -2.04387260	      7.97690736	      5.37596319	     -6.20927737	      2.81818959	    -15.58436929	      4.39072579	     -2.70663550	     -3.76191715	      2.41777368
      1.79150000	      2.32801615	      3.14257514	      2.24779065	      1.49945006	      1.02856770	      0.28942587	     16.36873741	     -2.24226479	     -1.65411670	    -54.49247052	      6.05642870	    -18.38964480	      2.31064962	     -2.49169601	      7.87931061	      5.68544085	     -5.90482524	      2.82934597	    -15.62364903	      4.32548985	     -2.73375380	     -3.68943569	      2.22287920
      1.79566667	      2.31149642	      3.07305617	      2.48859516	      1.50408939	      1.02869526	      0.28905871	     16.75053423	     -2.19812995	     -1.77028675	    -53.75421450	      6.15023134	    -18.33882916	      2.27877903	     -2.89069094	      7.77117606	      5.90622818	     -5.66089770	      2.91681299	    -15.55197095	      4.30765772	     -2.73644388	     -3.60638375	      2.16655361
      1.79983333	      2.29731111	      3.00695306	      2.71849307	      1.50874576	      1.02880418	      0.28871442	     17.11887466	     -2.15697354	     -1.87026985	    -52.98992678	      6.22552565	    -18.28890576	      2.24315850	     -3.30260513	      7.66481606	      6.15530894	     -5.39657754	      2.98462875	    -15.52865958	      4.28516188	     -2.75424820	     -3.52882642	      2.03458043
      1.80400000	      2.32747663	      2.96171708	      2.92250503	      1.51338507	      1.02893370	      0.28841410	     17.43792406	     -2.13077096	     -1.93723761	    -52.21367392	      6.27959716	    -18.24202490	      2.17428956	     -3.79735115	      7.57769158	      6.46476096	     -5.05431554	      3.01625046	    -15.63069657	      4.23558107	     -2.82422276	     -3.47572421	      1.79932688
      1.80816667	      2.31114840	      2.90324933	      3.13039680	      1.51805477	      1.02897637	      0.28812194	     17.79060339	     -2.09302726	     -1.99997838	    -51.41119279	      6.35335612	    -18.16607083	      2.10735979	     -4.22259569	      7.47310505	      6.73885146	     -4.75607243	      3.04208452	    -15.67559047	      4.18375671	     -2.83479444	     -3.41232636	      1.68613117
      1.81233333	      2.26788824	      2.86210842	      3.33001393	      1.52271063	      1.02892244	      0.28784605	     18.17698879	     -2.08193932	     -2.06287218	    -50.61414899	      6.43151475	    -18.08149962	      2.09427818	     -4.60015257	      7.38332660	      6.91889426	     -4.48948058	      3.12587661	    -15.57566346	      4.17462925	     -2.80635577	     -3.36292154	      1.65124388
      1.81650000	      2.30301929	      2.81264345	      3.54742067	      1.52732154	      1.02898962	      0.28756595	     18.44778336	     -2.05898986	     -2.13057469	    -49.75593900	      6.47280666	    -17.97474161	      2.04778955	     -5.06619610	      7.27780711	      7.21008046	     -4.21561991	      3.18303042	    -15.65129375	      4.12836523	     -2.88498915	     -3.31151814	      1.41957083
      1.82066667	      2.28853262	      2.76273617	      3.75546720	      1.53195649	      1.02894570	      0.28730323	     18.76987408	     -2.03784787	     -2.18507281	    -48.88993362	      6.51042117	    -17.87310922	      2.00716086	     -5.48228564	      7.16993485	      7.46028189	     -3.92890044	      3.22813581	    -15.67184242	      4.08037094	     -2.90411783	     -3.25726431	      1.30125644
      1.82483333	      2.25482569	      2.71997684	      3.94721702	      1.53662744	      1.02884720	      0.28706625	     19.10023244	     -2.02480251	     -2.22329072	    -48.00540258	      6.55100807	    -17.73476149	      1.99580028	     -5.85829702	      7.06902342	      7.63893995	     -3.68861490	      3.31658351	    -15.60206579	      4.06494131	     -2.88258742	     -3.21023255	      1.26129047
      1.82900000	      2.28568543	      2.69025349	      4.12659351	      1.54122375	      1.02878762	      0.28685260	     19.36049874	     -2.02019023	     -2.24856574	    -47.10930879	      6.57469505	    -17.60438621	      1.97726743	     -6.32522665	      6.97571175	      7.86886694	     -3.39313274	      3.39101329	    -15.61897594	      4.02488402	     -2.96407320	     -3.17769005	      1.10200418
      1.83316667	      2.22821489	      2.64076566	      4.32302506	      1.54588657	      1.02860510	      0.28662382	     19.69202176	     -2.00680639	     -2.28847477	    -46.17669419	      6.58915627	    -17.46563862	      1.97395794	     -6.66807190	      6.86350951	      8.04694653	     -3.16120266	      3.48173547	    -15.54548379	      4.01194274	     -2.92183737	     -3.12734436	      1.06043486
      1.83733333	      2.22286943	      2.61718602	      4.50359210	      1.55048263	      1.02844903	      0.28642134	     19.96570655	     -2.01561936	     -2.30685510	    -45.23048740	      6.59717527	    -17.31295588	      1.97479605	     -7.07363525	      6.77441792	      8.23818626	     -2.91569273	      3.57924186	    -15.50038591	      3.99407267	     -2.94633938	     -3.09790143	      0.96224073
      1.84150000	      2.23053899	      2.59024683	      4.68831151	      1.55512004	      1.02827740	      0.28622202	     20.21146158	     -2.02256528	     -2.33106979	    -44.27097429	      6.58715561	    -17.16317434	      1.98459621	     -7.51038645	      6.67589328	      8.45467226	     -2.63522288	      3.67168748	    -15.50468224	      3.95761615	     -2.99978396	     -3.07574432	      0.79573817
      1.84566667	      2.19240318	      2.56238238	      4.87034516	      1.55973854	      1.02802003	      0.28602812	     20.49753865	     -2.03406753	     -2.35051581	    -43.28848795	      6.58985552	    -16.98834909	      1.99275913	     -7.86885734	      6.57981081	      8.61411707	     -2.40972365	      3.76733053	    -15.42475112	      3.94405726	     -2.99290285	     -3.04929401	      0.75597282
